<svg xmlns="http://www.w3.org/2000/svg" xml:space="preserve" width="139.764" height="200"><path d="M326.928 85.059c0-.836 1.155-1.254 3.465-1.254 2.31 0 3.465.418 3.465 1.254 0 .678-.499 1.275-1.494 1.792v1.972c.995.319 1.494.797 1.494 1.434 0 .637-.499 1.115-1.494 1.434v1.972c.995.519 1.494 1.116 1.494 1.792 0 .836-1.156 1.255-3.465 1.255-2.311 0-3.465-.418-3.465-1.255 0-.677.498-1.274 1.494-1.792V91.69c-.997-.318-1.494-.796-1.494-1.434 0-.637.498-1.115 1.494-1.434V86.85c-.996-.516-1.494-1.113-1.494-1.791zm0 14.458c0-.836 1.155-1.254 3.465-1.254 2.31 0 3.465.418 3.465 1.254 0 .678-.499 1.275-1.494 1.792v1.972c.995.319 1.494.797 1.494 1.434 0 .637-.499 1.115-1.494 1.434v1.972c.995.518 1.494 1.116 1.494 1.792 0 .836-1.156 1.255-3.465 1.255-2.311 0-3.465-.418-3.465-1.255 0-.677.498-1.274 1.494-1.792v-1.972c-.997-.318-1.494-.796-1.494-1.434 0-.637.498-1.115 1.494-1.434v-1.972c-.996-.517-1.494-1.114-1.494-1.792zm0 14.459c0-.836 1.155-1.254 3.465-1.254 2.31 0 3.465.418 3.465 1.254 0 .678-.499 1.275-1.494 1.792v1.972c.995.319 1.494.797 1.494 1.434 0 .637-.499 1.115-1.494 1.434v1.972c.995.518 1.494 1.115 1.494 1.792 0 .836-1.156 1.255-3.465 1.255-2.311 0-3.465-.418-3.465-1.255 0-.678.498-1.275 1.494-1.792v-1.972c-.997-.318-1.494-.796-1.494-1.434 0-.637.498-1.115 1.494-1.434v-1.972c-.996-.517-1.494-1.115-1.494-1.792zm2.57-28.917v3.465c.199-.039.498-.06.896-.06.397 0 .696.021.896.06v-3.465c-.2-.039-.499-.06-.896-.06-.399 0-.698.021-.896.06zm0 6.333c.079 0 .218.01.418.03.199.021.358.03.478.03s.278-.009.478-.03c.199-.02.338-.03.418-.03v-2.271c-.08 0-.219-.009-.418-.03-.2-.02-.358-.03-.478-.03s-.279.01-.478.03c-.2.021-.339.03-.418.03zm1.792 4.063V91.99c-.2.041-.499.06-.896.06-.398 0-.697-.02-.896-.06v3.465c.199.04.498.06.896.06.397 0 .696-.02.896-.06zm-1.792 4.062v3.465c.199-.039.498-.06.896-.06.397 0 .696.021.896.06v-3.465c-.2-.039-.499-.06-.896-.06-.399.001-.698.021-.896.06zm0 6.334c.079 0 .218.01.418.03.199.021.358.03.478.03s.278-.009.478-.03c.199-.02.338-.03.418-.03v-2.271c-.08 0-.219-.009-.418-.03-.2-.02-.358-.03-.478-.03s-.279.01-.478.03c-.2.021-.339.03-.418.03zm1.792 4.062v-3.465c-.2.04-.499.06-.896.06-.398 0-.697-.02-.896-.06v3.465c.199.04.498.06.896.06.397 0 .696-.02.896-.06zm-1.792 4.063v3.465c.199-.039.498-.06.896-.06.397 0 .696.021.896.06v-3.465c-.2-.039-.499-.06-.896-.06-.399 0-.698.021-.896.06zm0 6.333c.079 0 .218.01.418.03.199.021.358.03.478.03s.278-.009.478-.03c.199-.02.338-.03.418-.03v-2.27c-.08 0-.219-.009-.418-.03-.2-.02-.358-.03-.478-.03s-.279.011-.478.03c-.2.021-.339.03-.418.03zm1.792 4.063v-3.465c-.2.04-.499.06-.896.06-.398 0-.697-.02-.896-.06v3.465c.199.039.498.06.896.06.397-.001.696-.021.896-.06z" style="fill:#133f00" transform="matrix(4.03315 0 0 4.03315 -1300.478 -322.33)"/><path d="M336.309 85.059c0-.836 1.155-1.254 3.465-1.254 2.31 0 3.466.418 3.466 1.254 0 .678-.499 1.275-1.494 1.792v1.972c.996.319 1.494.797 1.494 1.434 0 .637-.499 1.115-1.494 1.434v1.972c.996.519 1.494 1.116 1.494 1.792 0 .836-1.156 1.255-3.466 1.255-2.31 0-3.465-.418-3.465-1.255 0-.677.497-1.274 1.494-1.792V91.69c-.997-.318-1.494-.796-1.494-1.434 0-.637.497-1.115 1.494-1.434V86.85c-.997-.516-1.494-1.113-1.494-1.791zm0 14.458c0-.836 1.155-1.254 3.465-1.254 2.31 0 3.466.418 3.466 1.254 0 .678-.499 1.275-1.494 1.792v1.972c.996.319 1.494.797 1.494 1.434 0 .637-.499 1.115-1.494 1.434v1.972c.996.518 1.494 1.116 1.494 1.792 0 .836-1.156 1.255-3.466 1.255-2.31 0-3.465-.418-3.465-1.255 0-.677.497-1.274 1.494-1.792v-1.972c-.997-.318-1.494-.796-1.494-1.434 0-.637.497-1.115 1.494-1.434v-1.972c-.997-.517-1.494-1.114-1.494-1.792zm0 14.459c0-.836 1.155-1.254 3.465-1.254 2.31 0 3.466.418 3.466 1.254 0 .678-.499 1.275-1.494 1.792v1.972c.996.319 1.494.797 1.494 1.434 0 .637-.499 1.115-1.494 1.434v1.972c.996.518 1.494 1.115 1.494 1.792 0 .836-1.156 1.255-3.466 1.255-2.31 0-3.465-.418-3.465-1.255 0-.678.497-1.275 1.494-1.792v-1.972c-.997-.318-1.494-.796-1.494-1.434 0-.637.497-1.115 1.494-1.434v-1.972c-.997-.517-1.494-1.115-1.494-1.792zm2.569-28.917v3.465c.198-.039.497-.06.896-.06.398 0 .696.021.896.06v-3.465c-.2-.039-.499-.06-.896-.06-.399 0-.698.021-.896.06zm0 6.333c.119 0 .278.01.478.03.199.021.338.03.418.03.08 0 .219-.009.418-.03.199-.02.358-.03.478-.03v-2.271c-.12 0-.279-.009-.478-.03-.2-.02-.339-.03-.418-.03-.08 0-.219.01-.418.03-.2.021-.358.03-.478.03zm1.792 4.063V91.99c-.2.041-.499.06-.896.06-.398 0-.697-.02-.896-.06v3.465c.198.04.497.06.896.06.397 0 .696-.02.896-.06zm-1.792 4.062v3.465c.198-.039.497-.06.896-.06.398 0 .696.021.896.06v-3.465c-.2-.039-.499-.06-.896-.06-.399.001-.698.021-.896.06zm0 6.334c.119 0 .278.01.478.03.199.021.338.03.418.03.08 0 .219-.009.418-.03.199-.02.358-.03.478-.03v-2.271c-.12 0-.279-.009-.478-.03-.2-.02-.339-.03-.418-.03-.08 0-.219.01-.418.03-.2.021-.358.03-.478.03zm1.792 4.062v-3.465c-.2.04-.499.06-.896.06-.398 0-.697-.02-.896-.06v3.465c.198.04.497.06.896.06.397 0 .696-.02.896-.06zm-1.792 4.063v3.465c.198-.039.497-.06.896-.06.398 0 .696.021.896.06v-3.465c-.2-.039-.499-.06-.896-.06-.399 0-.698.021-.896.06zm0 6.333c.119 0 .278.01.478.03.199.021.338.03.418.03.08 0 .219-.009.418-.03.199-.02.358-.03.478-.03v-2.27c-.12 0-.279-.009-.478-.03-.2-.02-.339-.03-.418-.03-.08 0-.219.011-.418.03-.2.021-.358.03-.478.03zm1.792 4.063v-3.465c-.2.04-.499.06-.896.06-.398 0-.697-.02-.896-.06v3.465c.198.039.497.06.896.06.397-.001.696-.021.896-.06z" style="fill:#870000" transform="matrix(4.03315 0 0 4.03315 -1300.478 -322.33)"/><path d="M345.688 85.059c0-.836 1.155-1.254 3.465-1.254 2.31 0 3.465.418 3.465 1.254 0 .678-.499 1.275-1.494 1.792v1.972c.996.319 1.494.797 1.494 1.434 0 .637-.499 1.115-1.494 1.434v1.972c.996.519 1.494 1.116 1.494 1.792 0 .836-1.156 1.255-3.465 1.255-2.311 0-3.465-.418-3.465-1.255 0-.677.498-1.274 1.494-1.792V91.69c-.996-.318-1.494-.796-1.494-1.434 0-.637.498-1.115 1.494-1.434V86.85c-.996-.516-1.494-1.113-1.494-1.791zm0 14.458c0-.836 1.155-1.254 3.465-1.254 2.31 0 3.465.418 3.465 1.254 0 .678-.499 1.275-1.494 1.792v1.972c.996.319 1.494.797 1.494 1.434 0 .637-.499 1.115-1.494 1.434v1.972c.996.518 1.494 1.116 1.494 1.792 0 .836-1.156 1.255-3.465 1.255-2.311 0-3.465-.418-3.465-1.255 0-.677.498-1.274 1.494-1.792v-1.972c-.996-.318-1.494-.796-1.494-1.434 0-.637.498-1.115 1.494-1.434v-1.972c-.996-.517-1.494-1.114-1.494-1.792zm0 14.459c0-.836 1.155-1.254 3.465-1.254 2.31 0 3.465.418 3.465 1.254 0 .678-.499 1.275-1.494 1.792v1.972c.996.319 1.494.797 1.494 1.434 0 .637-.499 1.115-1.494 1.434v1.972c.996.518 1.494 1.115 1.494 1.792 0 .836-1.156 1.255-3.465 1.255-2.311 0-3.465-.418-3.465-1.255 0-.678.498-1.275 1.494-1.792v-1.972c-.996-.318-1.494-.796-1.494-1.434 0-.637.498-1.115 1.494-1.434v-1.972c-.996-.517-1.494-1.115-1.494-1.792zm2.57-28.917v3.465c.199-.039.498-.06.896-.06.397 0 .697.021.896.06v-3.465a5.029 5.029 0 0 0-.896-.06c-.399 0-.697.021-.896.06zm0 6.333c.079 0 .218.01.418.03.199.021.358.03.478.03s.278-.009.478-.03c.199-.02.338-.03.418-.03v-2.271c-.08 0-.219-.009-.418-.03-.2-.02-.358-.03-.478-.03s-.279.01-.478.03c-.2.021-.339.03-.418.03zm1.792 4.063V91.99c-.199.041-.499.06-.896.06-.398 0-.697-.02-.896-.06v3.465c.199.04.498.06.896.06.397 0 .697-.02.896-.06zm-1.792 4.062v3.465c.199-.039.498-.06.896-.06.397 0 .697.021.896.06v-3.465a5.029 5.029 0 0 0-.896-.06c-.399.001-.697.021-.896.06zm0 6.334c.079 0 .218.01.418.03.199.021.358.03.478.03s.278-.009.478-.03c.199-.02.338-.03.418-.03v-2.271c-.08 0-.219-.009-.418-.03-.2-.02-.358-.03-.478-.03s-.279.01-.478.03c-.2.021-.339.03-.418.03zm1.792 4.062v-3.465c-.199.04-.499.06-.896.06-.398 0-.697-.02-.896-.06v3.465c.199.04.498.06.896.06.397 0 .697-.02.896-.06zm-1.792 4.063v3.465c.199-.039.498-.06.896-.06.397 0 .697.021.896.06v-3.465a5.029 5.029 0 0 0-.896-.06c-.399 0-.697.021-.896.06zm0 6.333c.079 0 .218.01.418.03.199.021.358.03.478.03s.278-.009.478-.03c.199-.02.338-.03.418-.03v-2.27c-.08 0-.219-.009-.418-.03-.2-.02-.358-.03-.478-.03s-.279.011-.478.03c-.2.021-.339.03-.418.03zm1.792 4.063v-3.465c-.199.04-.499.06-.896.06-.398 0-.697-.02-.896-.06v3.465c.199.039.498.06.896.06.397-.001.697-.021.896-.06z" style="fill:#133f00" transform="matrix(4.03315 0 0 4.03315 -1300.478 -322.33)"/></svg>