<svg xmlns="http://www.w3.org/2000/svg" xml:space="preserve" width="139.764" height="200"><path d="M212.217 87.27c0-.836 1.195-1.255 3.584-1.255 2.39 0 3.585.418 3.585 1.255 0 .678-.499 1.275-1.494 1.792v3.764c.995.319 1.494.797 1.494 1.434 0 .638-.499 1.116-1.494 1.434v3.764c.995.518 1.494 1.116 1.494 1.792 0 .836-1.195 1.254-3.585 1.254-2.39 0-3.584-.418-3.584-1.254 0-.677.498-1.274 1.494-1.792v-3.764c-.996-.318-1.494-.796-1.494-1.434 0-.637.498-1.115 1.494-1.434v-3.764c-.997-.518-1.494-1.115-1.494-1.792zm0 20.911c0-.837 1.195-1.255 3.584-1.255 2.39 0 3.585.418 3.585 1.255 0 .678-.499 1.275-1.494 1.792v3.764c.995.319 1.494.797 1.494 1.434 0 .637-.499 1.115-1.494 1.434v3.764c.995.518 1.494 1.115 1.494 1.792 0 .836-1.195 1.254-3.585 1.254-2.39 0-3.584-.418-3.584-1.254 0-.677.498-1.274 1.494-1.792v-3.764c-.996-.318-1.494-.796-1.494-1.434 0-.637.498-1.115 1.494-1.434v-3.764c-.997-.517-1.494-1.115-1.494-1.792zm2.688-20.911v5.258c.199-.04.498-.06.896-.06s.697.021.896.06V87.27c-.2-.039-.499-.06-.896-.06-.398 0-.697.02-.896.06zm0 8.125c.079 0 .218.011.418.03.199.021.359.03.478.03.12 0 .278-.009.478-.03.199-.02.338-.03.418-.03v-2.27c-.081 0-.219-.009-.418-.03-.2-.02-.358-.03-.478-.03-.119 0-.279.01-.478.03-.2.021-.339.03-.418.03zm1.793 5.855v-5.258c-.2.04-.499.06-.896.06-.398 0-.697-.02-.896-.06v5.258c.199.04.498.06.896.06.397 0 .696-.02.896-.06zm-1.793 6.931v5.257c.199-.039.498-.06.896-.06s.697.021.896.06v-5.257c-.2-.04-.499-.06-.896-.06-.398 0-.697.02-.896.06zm0 8.125c.079 0 .218.01.418.03.199.021.359.03.478.03.12 0 .278-.009.478-.03.199-.02.338-.03.418-.03v-2.271c-.081 0-.219-.009-.418-.03-.2-.02-.358-.03-.478-.03-.119 0-.279.01-.478.03-.2.021-.339.03-.418.03zm1.793 5.855v-5.258c-.2.04-.499.06-.896.06-.398 0-.697-.02-.896-.06v5.258c.199.04.498.06.896.06.397 0 .696-.02.896-.06zm4.779-34.891c0-.836 1.195-1.255 3.585-1.255 2.39 0 3.585.418 3.585 1.255 0 .678-.499 1.275-1.494 1.792v3.764c.995.319 1.494.797 1.494 1.434 0 .638-.499 1.116-1.494 1.434v3.764c.995.518 1.494 1.116 1.494 1.792 0 .836-1.195 1.254-3.585 1.254-2.39 0-3.585-.418-3.585-1.254 0-.677.498-1.274 1.494-1.792v-3.764c-.996-.318-1.494-.796-1.494-1.434 0-.637.498-1.115 1.494-1.434v-3.764c-.996-.518-1.494-1.115-1.494-1.792zm0 20.911c0-.837 1.195-1.255 3.585-1.255 2.39 0 3.585.418 3.585 1.255 0 .678-.499 1.275-1.494 1.792v3.764c.995.319 1.494.797 1.494 1.434 0 .637-.499 1.115-1.494 1.434v3.764c.995.518 1.494 1.115 1.494 1.792 0 .836-1.195 1.254-3.585 1.254-2.39 0-3.585-.418-3.585-1.254 0-.677.498-1.274 1.494-1.792v-3.764c-.996-.318-1.494-.796-1.494-1.434 0-.637.498-1.115 1.494-1.434v-3.764c-.996-.517-1.494-1.115-1.494-1.792zm2.689-20.911v5.258c.199-.04.498-.06.896-.06.397 0 .696.021.896.06V87.27c-.2-.039-.499-.06-.896-.06-.398 0-.697.02-.896.06zm0 8.125c.119 0 .278.011.478.03.199.021.338.03.418.03.079 0 .218-.009.418-.03.198-.02.358-.03.478-.03v-2.27c-.12 0-.28-.009-.478-.03-.2-.02-.339-.03-.418-.03-.081 0-.219.01-.418.03-.2.021-.358.03-.478.03zm1.792 5.855v-5.258c-.2.04-.499.06-.896.06-.398 0-.697-.02-.896-.06v5.258c.199.04.498.06.896.06.397 0 .696-.02.896-.06zm-1.792 6.931v5.257c.199-.039.498-.06.896-.06.397 0 .696.021.896.06v-5.257c-.2-.04-.499-.06-.896-.06-.398 0-.697.02-.896.06zm0 8.125c.119 0 .278.01.478.03.199.021.338.03.418.03.079 0 .218-.009.418-.03.198-.02.358-.03.478-.03v-2.271c-.12 0-.28-.009-.478-.03-.2-.02-.339-.03-.418-.03-.081 0-.219.01-.418.03-.2.021-.358.03-.478.03zm1.792 5.855v-5.258c-.2.04-.499.06-.896.06-.398 0-.697-.02-.896-.06v5.258c.199.04.498.06.896.06.397 0 .696-.02.896-.06zm4.78-34.891c0-.836 1.195-1.255 3.585-1.255 2.39 0 3.584.418 3.584 1.255 0 .678-.499 1.275-1.494 1.792v3.764c.995.319 1.494.797 1.494 1.434 0 .638-.499 1.116-1.494 1.434v3.764c.995.518 1.494 1.116 1.494 1.792 0 .836-1.195 1.254-3.584 1.254-2.389 0-3.585-.418-3.585-1.254 0-.677.498-1.274 1.494-1.792v-3.764c-.996-.318-1.494-.796-1.494-1.434 0-.637.498-1.115 1.494-1.434v-3.764c-.996-.518-1.494-1.115-1.494-1.792zm0 20.911c0-.837 1.195-1.255 3.585-1.255 2.39 0 3.584.418 3.584 1.255 0 .678-.499 1.275-1.494 1.792v3.764c.995.319 1.494.797 1.494 1.434 0 .637-.499 1.115-1.494 1.434v3.764c.995.518 1.494 1.115 1.494 1.792 0 .836-1.195 1.254-3.584 1.254-2.389 0-3.585-.418-3.585-1.254 0-.677.498-1.274 1.494-1.792v-3.764c-.996-.318-1.494-.796-1.494-1.434 0-.637.498-1.115 1.494-1.434v-3.764c-.996-.517-1.494-1.115-1.494-1.792zm2.688-20.911v5.258c.199-.04.498-.06.896-.06.397 0 .696.021.896.06V87.27c-.2-.039-.499-.06-.896-.06-.398 0-.697.02-.896.06zm0 8.125c.08 0 .219.011.418.03.199.021.359.03.479.03.119 0 .278-.009.478-.03.199-.02.338-.03.418-.03v-2.27c-.08 0-.219-.009-.418-.03a5.016 5.016 0 0 0-.478-.03c-.12 0-.279.01-.479.03-.199.021-.338.03-.418.03zm1.793 5.855v-5.258c-.2.04-.499.06-.896.06-.399 0-.697-.02-.896-.06v5.258c.199.04.498.06.896.06.397 0 .696-.02.896-.06zm-1.793 6.931v5.257c.199-.039.498-.06.896-.06.397 0 .696.021.896.06v-5.257c-.2-.04-.499-.06-.896-.06-.398 0-.697.02-.896.06zm0 8.125c.08 0 .219.01.418.03.199.021.359.03.479.03.119 0 .278-.009.478-.03.199-.02.338-.03.418-.03v-2.271c-.08 0-.219-.009-.418-.03a5.016 5.016 0 0 0-.478-.03c-.12 0-.279.01-.479.03-.199.021-.338.03-.418.03zm1.793 5.855v-5.258c-.2.04-.499.06-.896.06-.399 0-.697-.02-.896-.06v5.258c.199.04.498.06.896.06.397 0 .696-.02.896-.06z" style="fill:#133f00" transform="matrix(4.03315 0 0 4.03315 -837.831 -322.33)"/></svg>