<svg xmlns="http://www.w3.org/2000/svg" xml:space="preserve" width="139.764" height="200"><path d="M262.343 233.766c.796.319 1.573.977 2.33 1.972.756.996 1.135 1.773 1.135 2.33 0 .239-.07.448-.209.627-.14.179-.298.349-.478.508-.179.16-.369.518-.568 1.075-.2.558-.339 1.275-.418 2.151a25.72 25.72 0 0 0 2.032-.747 59.777 59.777 0 0 1 2.091-.807c.557-.199.976-.299 1.254-.299.318 0 .757.359 1.315 1.075.12.16.378.439.776.837.398.398.667.687.807.866.139.179.288.418.448.717.159.299.239.567.239.807 0 .358-.16.537-.479.537-.757 0-1.314.14-1.672.418-.279.439-.648.956-1.105 1.554-.458.598-.827 1.076-1.105 1.434-.28.359-.419.619-.419.777 0 .717-.279 1.076-.836 1.076-.2 0-.608-.06-1.225-.179-.618-.12-1.404-.199-2.36-.239 0 .358-.021 1.205-.06 2.539-.04 1.335-.06 2.082-.06 2.24 0 .279.039 1.036.12 2.271.08 1.235.12 2.071.12 2.509 0 1.036-.14 2.071-.418 3.107-.28 1.036-.578 1.713-.896 2.031-.478-.398-.717-1.932-.717-4.6 0-.278.02-.876.06-1.792.04-.916.06-1.753.06-2.51 0-.438-.02-1.344-.06-2.718a115.69 115.69 0 0 1-.06-3.017c-.319 0-.856.13-1.613.388-.757.26-1.375.389-1.852.389-.319 0-.479-.299-.479-.896 0-.358-.757-1.195-2.27-2.509-1.514-1.314-2.27-2.31-2.27-2.987 0-.995.158-1.673.478-2.032.318.2.707.499 1.165.896a15.3 15.3 0 0 0 1.195.956c.339.239.627.359.867.359s1.055-.259 2.45-.777c1.394-.518 2.17-.856 2.33-1.016v-.896c0-.477-.01-.826-.029-1.046l-.09-.956c-.04-.418-.1-.737-.179-.956a69.63 69.63 0 0 0-.269-.717 1.263 1.263 0 0 0-.448-.598 1.125 1.125 0 0 0-.657-.209c0-.079-.041-.229-.12-.448-.079-.219-.119-.389-.119-.508-.002-.916.754-1.912 2.268-2.987zm-4.421 12.008c.875 1.235 1.593 2.43 2.151 3.585.637-.08 1.274-.199 1.912-.358v-4.481c-.358.119-.806.309-1.344.567-.538.26-.996.458-1.374.598-.379.14-.667.209-.866.209a1.03 1.03 0 0 1-.479-.12zm6.213-1.971c-.159 1.912-.239 3.584-.239 5.018.159 0 .438.011.836.03.398.021.756.03 1.076.03a79.05 79.05 0 0 0 1.553-2.181c.199-.298.428-.657.687-1.075.258-.418.448-.797.568-1.135.12-.338.179-.627.179-.867 0-.478-.319-.716-.956-.716-.876 0-2.111.299-3.704.896z" style="fill:#870000" transform="matrix(4.03315 0 0 4.03315 -992.043 -900.643)"/></svg>